<?xml version="1.0" encoding="utf-8"?>
<svg xmlns="http://www.w3.org/2000/svg" viewBox="0 -0.009 92.3243 133.7601" width="92.3243px" height="133.76px">
  <defs>
    <style>.cls-1{fill:#fff;fill-rule:evenodd}</style>
  </defs>
  <path class="cls-1" d="M 11.56 13.35 C 8.126 14.271 4.758 15.424 1.48 16.8 L 1.48 29 C 1.48 32.5 1.14 31.7 4.81 31.82 C 24.59 32.47 35.17 35.13 50 44.31 C 49.664 40.644 48.56 37.091 46.76 33.88 C 36.83 26.63 27.49 23.06 15.25 22.22 C 49.92 14 81.05 47.2 69.5 81.56 C 66.7 80.81 60.98 78.56 55.71 83.03 C 58.27 90.15 56.22 101.28 46.71 100.63 C 47.05 103.91 45.28 108.36 40.47 111.93 C 33.76 116.04 23.36 117.43 18.2 114.34 C 11.78 115.34 7.1 113.49 1.54 110.76 L 1.54 116.63 C 4.623 118.499 8.006 119.818 11.54 120.53 L 14.07 131.86 C 14.679 133.106 15.988 133.852 17.37 133.74 L 34.5 133.74 C 35.819 133.769 37.036 133.038 37.63 131.86 L 40.07 120.2 C 42.338 119.611 44.566 118.876 46.74 118 L 55.58 125.8 C 56.751 126.42 58.183 126.261 59.19 125.4 L 72.19 115.78 C 73.221 114.999 73.746 113.72 73.56 112.44 L 68.7 101.72 C 70.176 99.901 71.536 97.991 72.77 96 L 84.57 97.12 C 85.81 97.12 86.66 96.31 87.21 94.67 L 92.08 79.24 C 92.598 78.036 92.274 76.635 91.28 75.78 L 81 70 C 81.149 67.669 81.149 65.331 81 63 L 91.19 57 C 92.3 56.41 92.45 55.14 91.84 53.38 L 86.69 38 C 86.528 36.679 85.401 35.69 84.07 35.7 L 72.28 37 C 71.015 35.028 69.622 33.14 68.11 31.35 L 72.79 20.52 C 73.235 19.21 72.594 17.779 71.32 17.24 L 58.18 7.88 C 56.92 7 55.7 6.74 54.57 7.54 L 45.86 15.54 C 43.675 14.689 41.437 13.981 39.16 13.42 L 36.59 1.83 C 36.17 0.49 35.15 -0.09 33.37 0 L 17.26 0 C 15.37 0.06 14.51 0.83 14.12 1.85 L 11.56 13.35 Z M 30.56 62.88 L 32 62.88 C 32.155 62.88 32.28 63.005 32.28 63.16 L 32.28 63.73 C 32.28 63.883 32.153 64.006 32 64 L 30.55 64 C 30.399 64 30.275 63.881 30.27 63.73 L 30.27 63.16 C 30.275 63.008 30.398 62.885 30.55 62.88 M 34.4 38.25 C 37.837 39.164 38.996 43.456 36.486 45.975 C 33.976 48.495 29.68 47.353 28.753 43.919 C 28.54 43.134 28.54 42.306 28.75 41.52 C 29.409 39.058 31.937 37.595 34.4 38.25 M 35.4 40.18 C 36.437 40.445 36.798 41.733 36.05 42.498 C 35.303 43.263 34.007 42.933 33.718 41.902 C 33.652 41.666 33.649 41.417 33.71 41.18 C 33.901 40.438 34.657 39.99 35.4 40.18 M 31.29 60.1 C 33.861 60.062 35.509 62.82 34.257 65.066 C 33.005 67.312 29.792 67.36 28.473 65.153 C 28.163 64.635 28 64.043 28 63.44 C 28.005 61.598 29.498 60.105 31.34 60.1 M 31.34 61.75 C 32.649 61.75 33.467 63.167 32.812 64.3 C 32.158 65.433 30.522 65.433 29.868 64.3 C 29.717 64.039 29.638 63.742 29.64 63.44 C 29.64 62.503 30.403 61.744 31.34 61.75 M 40.13 41.48 C 43.47 42.9 46.93 44.42 50.13 46.13 C 50.13 46.85 50.02 47.61 49.97 48.33 C 49.66 50.112 49.236 51.872 48.7 53.6 C 43.78 51.46 35.34 51.14 30.06 52.6 C 26.344 50.627 24.345 46.464 25.13 42.33 L 26.35 42.69 C 26.625 48.025 32.572 51.063 37.055 48.157 C 38.997 46.898 40.184 44.754 40.22 42.44 C 40.225 42.105 40.201 41.771 40.15 41.44 M 36.22 63.31 C 36.16 60.25 33.84 58.51 30.97 57.97 C 28.11 57.458 25.197 57.31 22.3 57.53 C 28.44 52.53 41.07 52.38 47.87 55.11 C 42.659 55.155 38.021 58.42 36.22 63.31 M 1.83 36.44 C 1.23 36.44 1.11 33.53 1.93 33.55 C 11.39 33.78 19.42 34.37 28.67 37.27 C 27.535 38.234 26.748 39.545 26.43 41 C 18.28 38.22 10.31 37.18 1.83 36.44 M 1.92 41.44 C 1.2 41.32 1.2 37.8 1.86 37.89 C 9.25 38.89 16.22 39.61 23.44 41.74 C 23.131 43.188 23.11 44.684 23.38 46.14 C 16.336 44.109 9.168 42.539 1.92 41.44 M 1.92 47.8 C 1.32 47.62 0.92 43.22 2.07 43.41 C 9.45 44.73 16.63 45.85 23.87 47.91 C 24.664 49.969 25.88 51.839 27.44 53.4 C 23.23 55 8.14 49.69 1.91 47.84 M 2.07 58.37 C 1.47 58.37 0.24 49.49 2.48 50.12 C 9.48 52.12 16.81 54.27 23.87 55.05 C 22.612 55.735 21.441 56.567 20.38 57.53 C 17.927 57.53 15.503 57.563 13.11 57.63 C 9.43 57.77 5.75 58.09 2.11 58.37 M 2.23 64.58 C 0.97 64.58 1.01 59.99 2.23 59.85 C 11.033 58.793 19.918 58.592 28.76 59.25 C 26.149 60.921 25.672 64.54 27.76 66.83 C 19.361 65.036 10.773 64.281 2.19 64.58 M 1.48 73.74 L 1.48 67.22 C 1.439 66.78 1.73 66.378 2.16 66.28 C 7.154 65.833 12.182 65.91 17.16 66.51 L 17.5 66.51 C 12.358 68.848 7.391 71.555 2.64 74.61 C 2.337 74.812 1.943 74.812 1.64 74.61 C 1.39 74.43 1.48 74.08 1.48 73.77 M 37.61 74.62 C 35.522 72.889 33.914 70.651 32.94 68.12 C 34.152 67.682 35.147 66.794 35.72 65.64 C 35.446 68.371 36.117 71.114 37.62 73.41 C 37.79 73.66 37.96 73.92 38.15 74.15 C 38.73 74.82 38.32 75.15 37.61 74.62 M 16.61 110.69 C 11.29 111 2 110.42 0 104.35 C 5.786 91.024 13.315 78.525 22.39 67.18 L 24.5 67.54 C 18.55 81.54 16.85 95.48 16.61 110.66 M 2.48 92.66 C 0.72 93.85 -1.41 79.91 2.48 77 C 6.77 74 10.86 71.45 15.48 68.53 L 18.48 66.66 C 19.14 66.73 19.79 66.81 20.48 66.9 C 19.92 67.52 18.79 68.8 18.58 69.02 C 13 75.22 6.47 86.23 2.48 92.71 M 54.23 53.92 C 55.57 54.39 53.97 58.81 52.99 58.55 C 52.009 58.338 50.985 58.568 50.19 59.18 C 51.366 61.534 52.323 63.991 53.05 66.52 C 53.25 67.39 53.5 69.52 52.51 70.07 C 51.83 70.48 50.66 70.37 49.07 70.55 L 48.84 72.2 C 48.95 72.43 49.25 72.52 49.23 72.69 C 49.005 73.381 48.346 73.836 47.62 73.8 C 47.77 74.36 48.16 74.6 48.01 75.45 C 47.92 75.97 46.94 76.05 46.29 76.45 C 45.64 76.85 45.94 77 45.55 77.04 L 45.29 77.04 C 36.06 75.42 35.73 63.76 42.65 59.29 L 44.77 59.99 C 45.37 60.18 45.31 60.22 44.65 60.44 C 44.375 60.526 44.095 60.589 43.81 60.63 C 43.08 60.78 43.01 60.77 43.81 61.03 C 44.61 61.29 45.73 61.54 46.37 61.77 C 46.7 61.89 46.69 62 46.94 61.65 C 47.201 61.262 47.227 60.763 47.01 60.35 C 47.418 60.342 47.816 60.221 48.16 60 C 48.83 59.6 48.61 59.36 47.92 59.4 C 47.473 59.469 47.017 59.469 46.57 59.4 L 43.57 58.57 C 45.226 57.229 47.323 56.555 49.45 56.68 L 50.55 52.59 L 54.23 53.92 Z M 47.06 79.13 C 49.87 81.53 54.06 79.77 51.8 81.53 C 44.2 87.29 33 77.26 31.52 68.86 L 32.52 68.86 C 34.08 72.26 34.57 73.61 37.83 76.07 C 39.529 77.389 41.592 78.157 43.74 78.27 C 45.74 78.45 45.45 77.75 47.07 79.13 M 65.91 49.52 C 67.78 54.27 67.58 60.75 63.36 63.35 C 61.89 64.25 61.36 63.26 62.36 62.15 C 63.19 61.29 63.15 59.49 62.88 58.55 C 61.8 54.64 54.52 52.1 51.07 51 C 52.301 46.134 51.806 40.992 49.67 36.45 C 56.59 38.45 63.18 42.5 65.91 49.45 M 21.35 112 C 20.26 100.17 20.93 78.61 26.06 67.8 C 27.21 68.03 28.32 68.38 29.5 68.58 C 29.5 68.77 29.39 70.16 29.38 70.28 C 28.38 86.28 34.64 96.38 43.89 101.02 C 42.89 111.41 29.73 113.72 21.35 112.02 M 53.94 84.02 C 56.13 87.72 52.83 97.63 48.28 98.46 C 36.38 95.91 29.15 79.83 30.28 68.68 C 30.45 68.68 30.62 68.68 30.79 68.74 C 30.87 69.347 30.991 69.949 31.15 70.54 C 33.39 79.29 44.32 88.88 53.98 84.02"/>
</svg>